# xmcd
#
# Track frame offsets:
# 150
# 16612
# 31609
# 47530
# 63767
# 78830
# 96024
# 113418
# 127682
# 140948
# 154746
# 171855
# 187113
#
# Disc length: 2738 seconds
#
#
# Revision: 0
# Processed by: cddbd v1.5.2PL0 Copyright (c) Steve Scherf et al.
# Submitted via: FreeRIP 2.951 
#
DISCID=910ab00d
DTITLE=Grupo Chama Farrapa - Chama Farrapa
DYEAR=2006
DGENRE=
TTITLE0=Movido a Gaitaço
TTITLE1=Da-lhe Pata e Manda Ver
TTITLE2=Balanço Bom
TTITLE3=Ela Quer Surungo
TTITLE4=Me Usa
TTITLE5=Quando Olho nos Teus Olhos
TTITLE6=Bonitona
TTITLE7=Num Bate Coxa
TTITLE8=Kombi do Chama
TTITLE9=Morena Só Pra Mim
TTITLE10=Machucando o Coração
TTITLE11=Juras
TTITLE12=Balanço Regional
EXTD=
EXTT0=
EXTT1=
EXTT2=
EXTT3=
EXTT4=
EXTT5=
EXTT6=
EXTT7=
EXTT8=
EXTT9=
EXTT10=
EXTT11=
EXTT12=
PLAYORDER=
